<mxfile host="app.diagrams.net" modified="2023-11-06T07:29:33.091Z" agent="Mozilla/5.0 (Macintosh; Intel Mac OS X 10.15; rv:109.0) Gecko/20100101 Firefox/119.0" etag="WtVG8oqqR0qGaMoMRkHh" version="22.0.8" type="github">
  <diagram name="Page-1" id="yTEgXZxeoU4mQSqTjCOM">
    <mxGraphModel dx="954" dy="480" grid="1" gridSize="10" guides="1" tooltips="1" connect="1" arrows="1" fold="1" page="1" pageScale="1" pageWidth="1169" pageHeight="827" math="0" shadow="0">
      <root>
        <mxCell id="0" />
        <mxCell id="1" parent="0" />
        <mxCell id="zhL6a_--adM9_cyL9lvs-1" value="" style="rounded=0;whiteSpace=wrap;html=1;fillColor=#f5f5f5;fontColor=#333333;strokeColor=#666666;" parent="1" vertex="1">
          <mxGeometry x="380" y="90" width="450" height="390" as="geometry" />
        </mxCell>
        <mxCell id="zhL6a_--adM9_cyL9lvs-2" value="&lt;b&gt;IdSnap&lt;/b&gt;" style="text;html=1;strokeColor=none;fillColor=none;align=center;verticalAlign=middle;whiteSpace=wrap;rounded=0;" parent="1" vertex="1">
          <mxGeometry x="403" y="250" width="60" height="30" as="geometry" />
        </mxCell>
        <mxCell id="zhL6a_--adM9_cyL9lvs-3" value="" style="shape=table;startSize=0;container=1;collapsible=0;childLayout=tableLayout;" parent="1" vertex="1">
          <mxGeometry x="476" y="99" width="344" height="374" as="geometry" />
        </mxCell>
        <mxCell id="zhL6a_--adM9_cyL9lvs-4" value="" style="shape=tableRow;horizontal=0;startSize=0;swimlaneHead=0;swimlaneBody=0;strokeColor=inherit;top=0;left=0;bottom=0;right=0;collapsible=0;dropTarget=0;fillColor=none;points=[[0,0.5],[1,0.5]];portConstraint=eastwest;" parent="zhL6a_--adM9_cyL9lvs-3" vertex="1">
          <mxGeometry width="344" height="47" as="geometry" />
        </mxCell>
        <mxCell id="zhL6a_--adM9_cyL9lvs-5" value="&lt;b&gt;Media&lt;/b&gt;" style="shape=partialRectangle;html=1;whiteSpace=wrap;connectable=0;strokeColor=inherit;overflow=hidden;fillColor=none;top=0;left=0;bottom=0;right=0;pointerEvents=1;" parent="zhL6a_--adM9_cyL9lvs-4" vertex="1">
          <mxGeometry width="117" height="47" as="geometry">
            <mxRectangle width="117" height="47" as="alternateBounds" />
          </mxGeometry>
        </mxCell>
        <mxCell id="zhL6a_--adM9_cyL9lvs-6" value="{ &lt;b&gt;Text&lt;/b&gt;: string, &lt;b&gt;Pic&lt;/b&gt;: string, &lt;b&gt;Music&lt;/b&gt;: string&amp;nbsp; }" style="shape=partialRectangle;html=1;whiteSpace=wrap;connectable=0;strokeColor=inherit;overflow=hidden;fillColor=none;top=0;left=0;bottom=0;right=0;pointerEvents=1;" parent="zhL6a_--adM9_cyL9lvs-4" vertex="1">
          <mxGeometry x="117" width="227" height="47" as="geometry">
            <mxRectangle width="227" height="47" as="alternateBounds" />
          </mxGeometry>
        </mxCell>
        <mxCell id="zhL6a_--adM9_cyL9lvs-7" value="" style="shape=tableRow;horizontal=0;startSize=0;swimlaneHead=0;swimlaneBody=0;strokeColor=inherit;top=0;left=0;bottom=0;right=0;collapsible=0;dropTarget=0;fillColor=none;points=[[0,0.5],[1,0.5]];portConstraint=eastwest;" parent="zhL6a_--adM9_cyL9lvs-3" vertex="1">
          <mxGeometry y="47" width="344" height="46" as="geometry" />
        </mxCell>
        <mxCell id="zhL6a_--adM9_cyL9lvs-8" value="&lt;b&gt;OwnSnap&lt;/b&gt;" style="shape=partialRectangle;html=1;whiteSpace=wrap;connectable=0;strokeColor=inherit;overflow=hidden;fillColor=none;top=0;left=0;bottom=0;right=0;pointerEvents=1;" parent="zhL6a_--adM9_cyL9lvs-7" vertex="1">
          <mxGeometry width="117" height="46" as="geometry">
            <mxRectangle width="117" height="46" as="alternateBounds" />
          </mxGeometry>
        </mxCell>
        <mxCell id="zhL6a_--adM9_cyL9lvs-9" value="&lt;b&gt;K(user)&lt;/b&gt;" style="shape=partialRectangle;html=1;whiteSpace=wrap;connectable=0;strokeColor=inherit;overflow=hidden;fillColor=none;top=0;left=0;bottom=0;right=0;pointerEvents=1;" parent="zhL6a_--adM9_cyL9lvs-7" vertex="1">
          <mxGeometry x="117" width="227" height="46" as="geometry">
            <mxRectangle width="227" height="46" as="alternateBounds" />
          </mxGeometry>
        </mxCell>
        <mxCell id="zhL6a_--adM9_cyL9lvs-10" value="" style="shape=tableRow;horizontal=0;startSize=0;swimlaneHead=0;swimlaneBody=0;strokeColor=inherit;top=0;left=0;bottom=0;right=0;collapsible=0;dropTarget=0;fillColor=none;points=[[0,0.5],[1,0.5]];portConstraint=eastwest;" parent="zhL6a_--adM9_cyL9lvs-3" vertex="1">
          <mxGeometry y="93" width="344" height="46" as="geometry" />
        </mxCell>
        <mxCell id="zhL6a_--adM9_cyL9lvs-11" value="&lt;b&gt;UsersLikes&lt;/b&gt;" style="shape=partialRectangle;html=1;whiteSpace=wrap;connectable=0;strokeColor=inherit;overflow=hidden;fillColor=none;top=0;left=0;bottom=0;right=0;pointerEvents=1;" parent="zhL6a_--adM9_cyL9lvs-10" vertex="1">
          <mxGeometry width="117" height="46" as="geometry">
            <mxRectangle width="117" height="46" as="alternateBounds" />
          </mxGeometry>
        </mxCell>
        <mxCell id="zhL6a_--adM9_cyL9lvs-12" value="{ &lt;b&gt;K(user)&lt;/b&gt;, &lt;b&gt;K(user)&lt;/b&gt;, ..., &lt;b&gt;K(user)&lt;/b&gt; }" style="shape=partialRectangle;html=1;whiteSpace=wrap;connectable=0;strokeColor=inherit;overflow=hidden;fillColor=none;top=0;left=0;bottom=0;right=0;pointerEvents=1;" parent="zhL6a_--adM9_cyL9lvs-10" vertex="1">
          <mxGeometry x="117" width="227" height="46" as="geometry">
            <mxRectangle width="227" height="46" as="alternateBounds" />
          </mxGeometry>
        </mxCell>
        <mxCell id="zhL6a_--adM9_cyL9lvs-13" value="" style="shape=tableRow;horizontal=0;startSize=0;swimlaneHead=0;swimlaneBody=0;strokeColor=inherit;top=0;left=0;bottom=0;right=0;collapsible=0;dropTarget=0;fillColor=none;points=[[0,0.5],[1,0.5]];portConstraint=eastwest;" parent="zhL6a_--adM9_cyL9lvs-3" vertex="1">
          <mxGeometry y="139" width="344" height="47" as="geometry" />
        </mxCell>
        <mxCell id="zhL6a_--adM9_cyL9lvs-14" value="&lt;b&gt;TagUsers&lt;/b&gt;" style="shape=partialRectangle;html=1;whiteSpace=wrap;connectable=0;strokeColor=inherit;overflow=hidden;fillColor=none;top=0;left=0;bottom=0;right=0;pointerEvents=1;" parent="zhL6a_--adM9_cyL9lvs-13" vertex="1">
          <mxGeometry width="117" height="47" as="geometry">
            <mxRectangle width="117" height="47" as="alternateBounds" />
          </mxGeometry>
        </mxCell>
        <mxCell id="zhL6a_--adM9_cyL9lvs-15" value="{ &lt;b&gt;K(user)&lt;/b&gt;, &lt;b&gt;K(user)&lt;/b&gt;, ..., &lt;b&gt;K(user)&lt;/b&gt; }" style="shape=partialRectangle;html=1;whiteSpace=wrap;connectable=0;strokeColor=inherit;overflow=hidden;fillColor=none;top=0;left=0;bottom=0;right=0;pointerEvents=1;" parent="zhL6a_--adM9_cyL9lvs-13" vertex="1">
          <mxGeometry x="117" width="227" height="47" as="geometry">
            <mxRectangle width="227" height="47" as="alternateBounds" />
          </mxGeometry>
        </mxCell>
        <mxCell id="zhL6a_--adM9_cyL9lvs-16" value="" style="shape=tableRow;horizontal=0;startSize=0;swimlaneHead=0;swimlaneBody=0;strokeColor=inherit;top=0;left=0;bottom=0;right=0;collapsible=0;dropTarget=0;fillColor=none;points=[[0,0.5],[1,0.5]];portConstraint=eastwest;" parent="zhL6a_--adM9_cyL9lvs-3" vertex="1">
          <mxGeometry y="186" width="344" height="48" as="geometry" />
        </mxCell>
        <mxCell id="zhL6a_--adM9_cyL9lvs-17" value="&lt;b&gt;Location&lt;/b&gt;" style="shape=partialRectangle;html=1;whiteSpace=wrap;connectable=0;strokeColor=inherit;overflow=hidden;fillColor=none;top=0;left=0;bottom=0;right=0;pointerEvents=1;" parent="zhL6a_--adM9_cyL9lvs-16" vertex="1">
          <mxGeometry width="117" height="48" as="geometry">
            <mxRectangle width="117" height="48" as="alternateBounds" />
          </mxGeometry>
        </mxCell>
        <mxCell id="zhL6a_--adM9_cyL9lvs-18" value="string" style="shape=partialRectangle;html=1;whiteSpace=wrap;connectable=0;strokeColor=inherit;overflow=hidden;fillColor=none;top=0;left=0;bottom=0;right=0;pointerEvents=1;" parent="zhL6a_--adM9_cyL9lvs-16" vertex="1">
          <mxGeometry x="117" width="227" height="48" as="geometry">
            <mxRectangle width="227" height="48" as="alternateBounds" />
          </mxGeometry>
        </mxCell>
        <mxCell id="zhL6a_--adM9_cyL9lvs-25" value="" style="shape=tableRow;horizontal=0;startSize=0;swimlaneHead=0;swimlaneBody=0;strokeColor=inherit;top=0;left=0;bottom=0;right=0;collapsible=0;dropTarget=0;fillColor=none;points=[[0,0.5],[1,0.5]];portConstraint=eastwest;" parent="zhL6a_--adM9_cyL9lvs-3" vertex="1">
          <mxGeometry y="234" width="344" height="47" as="geometry" />
        </mxCell>
        <mxCell id="zhL6a_--adM9_cyL9lvs-26" value="&lt;b&gt;LikesCount&lt;/b&gt;" style="shape=partialRectangle;html=1;whiteSpace=wrap;connectable=0;strokeColor=inherit;overflow=hidden;fillColor=none;top=0;left=0;bottom=0;right=0;pointerEvents=1;" parent="zhL6a_--adM9_cyL9lvs-25" vertex="1">
          <mxGeometry width="117" height="47" as="geometry">
            <mxRectangle width="117" height="47" as="alternateBounds" />
          </mxGeometry>
        </mxCell>
        <mxCell id="zhL6a_--adM9_cyL9lvs-27" value="int" style="shape=partialRectangle;html=1;whiteSpace=wrap;connectable=0;strokeColor=inherit;overflow=hidden;fillColor=none;top=0;left=0;bottom=0;right=0;pointerEvents=1;" parent="zhL6a_--adM9_cyL9lvs-25" vertex="1">
          <mxGeometry x="117" width="227" height="47" as="geometry">
            <mxRectangle width="227" height="47" as="alternateBounds" />
          </mxGeometry>
        </mxCell>
        <mxCell id="zhL6a_--adM9_cyL9lvs-28" value="" style="shape=tableRow;horizontal=0;startSize=0;swimlaneHead=0;swimlaneBody=0;strokeColor=inherit;top=0;left=0;bottom=0;right=0;collapsible=0;dropTarget=0;fillColor=none;points=[[0,0.5],[1,0.5]];portConstraint=eastwest;" parent="zhL6a_--adM9_cyL9lvs-3" vertex="1">
          <mxGeometry y="281" width="344" height="47" as="geometry" />
        </mxCell>
        <mxCell id="zhL6a_--adM9_cyL9lvs-29" value="&lt;b&gt;IsPrivate&lt;/b&gt;" style="shape=partialRectangle;html=1;whiteSpace=wrap;connectable=0;strokeColor=inherit;overflow=hidden;fillColor=none;top=0;left=0;bottom=0;right=0;pointerEvents=1;" parent="zhL6a_--adM9_cyL9lvs-28" vertex="1">
          <mxGeometry width="117" height="47" as="geometry">
            <mxRectangle width="117" height="47" as="alternateBounds" />
          </mxGeometry>
        </mxCell>
        <mxCell id="zhL6a_--adM9_cyL9lvs-30" value="bool" style="shape=partialRectangle;html=1;whiteSpace=wrap;connectable=0;strokeColor=inherit;overflow=hidden;fillColor=none;top=0;left=0;bottom=0;right=0;pointerEvents=1;" parent="zhL6a_--adM9_cyL9lvs-28" vertex="1">
          <mxGeometry x="117" width="227" height="47" as="geometry">
            <mxRectangle width="227" height="47" as="alternateBounds" />
          </mxGeometry>
        </mxCell>
        <mxCell id="_vJoVtYMAtV60pNRUIwq-1" value="" style="shape=tableRow;horizontal=0;startSize=0;swimlaneHead=0;swimlaneBody=0;strokeColor=inherit;top=0;left=0;bottom=0;right=0;collapsible=0;dropTarget=0;fillColor=none;points=[[0,0.5],[1,0.5]];portConstraint=eastwest;" vertex="1" parent="zhL6a_--adM9_cyL9lvs-3">
          <mxGeometry y="328" width="344" height="46" as="geometry" />
        </mxCell>
        <mxCell id="_vJoVtYMAtV60pNRUIwq-2" value="&lt;b&gt;TimeStamp&lt;/b&gt;" style="shape=partialRectangle;html=1;whiteSpace=wrap;connectable=0;strokeColor=inherit;overflow=hidden;fillColor=none;top=0;left=0;bottom=0;right=0;pointerEvents=1;" vertex="1" parent="_vJoVtYMAtV60pNRUIwq-1">
          <mxGeometry width="117" height="46" as="geometry">
            <mxRectangle width="117" height="46" as="alternateBounds" />
          </mxGeometry>
        </mxCell>
        <mxCell id="_vJoVtYMAtV60pNRUIwq-3" value="string" style="shape=partialRectangle;html=1;whiteSpace=wrap;connectable=0;strokeColor=inherit;overflow=hidden;fillColor=none;top=0;left=0;bottom=0;right=0;pointerEvents=1;" vertex="1" parent="_vJoVtYMAtV60pNRUIwq-1">
          <mxGeometry x="117" width="227" height="46" as="geometry">
            <mxRectangle width="227" height="46" as="alternateBounds" />
          </mxGeometry>
        </mxCell>
      </root>
    </mxGraphModel>
  </diagram>
</mxfile>
